<svg width="328" height="38" viewBox="0 0 328 38" fill="none" xmlns="http://www.w3.org/2000/svg">
<g clip-path="url(#clip0_701_1356)">
<path d="M9.37634 8.94543H1.41382V10.3354H9.37634V8.94543Z" fill="#0C0421"/>
<path d="M1.03932 11.5054C1.61332 11.5054 2.07864 10.6727 2.07864 9.6454C2.07864 8.61815 1.61332 7.7854 1.03932 7.7854C0.465319 7.7854 0 8.61815 0 9.6454C0 10.6727 0.465319 11.5054 1.03932 11.5054Z" fill="#0C0421"/>
<path d="M9.49905 9.05542L2.5982 1.92542L2.21265 3.13541L9.10791 10.2654L9.49905 9.05542Z" fill="#0C0421"/>
<path d="M2.07863 4.05545C2.65262 4.05545 3.11794 3.2227 3.11794 2.19545C3.11794 1.1682 2.65262 0.335449 2.07863 0.335449C1.50463 0.335449 1.03931 1.1682 1.03931 2.19545C1.03931 3.2227 1.50463 4.05545 2.07863 4.05545Z" fill="#0C0421"/>
<path d="M9.49905 10.2255L9.10791 9.0155L2.21265 16.1455L2.5982 17.3555L9.49905 10.2255Z" fill="#0C0421"/>
<path d="M2.07863 18.9455C2.65262 18.9455 3.11794 18.1127 3.11794 17.0855C3.11794 16.0582 2.65262 15.2255 2.07863 15.2255C1.50463 15.2255 1.03931 16.0582 1.03931 17.0855C1.03931 18.1127 1.50463 18.9455 2.07863 18.9455Z" fill="#0C0421"/>
<path d="M188.519 36.4854C181.992 36.4854 175.852 31.9354 171.236 23.6754L170.303 22.0054C165.548 13.4954 159.228 8.81543 152.506 8.81543H8.92358V10.1254H152.506C159.032 10.1254 165.173 14.6754 169.789 22.9354L170.722 24.6054C175.477 33.1154 181.797 37.7954 188.519 37.7954H328V36.4854H188.519Z" fill="#0C0421"/>
</g>
<defs>
<clipPath id="clip0_701_1356">
<rect width="328" height="37.46" fill="white" transform="translate(0 0.335449)"/>
</clipPath>
</defs>
</svg>
