<svg width="328" height="39" viewBox="0 0 328 39" fill="none" xmlns="http://www.w3.org/2000/svg">
<g clip-path="url(#clip0_701_1342)">
<path d="M318.624 9.48547H326.586V10.8755H318.624V9.48547Z" fill="#0C0421"/>
<path d="M326.961 12.0454C326.387 12.0454 325.921 11.2127 325.921 10.1854C325.921 9.15819 326.387 8.32544 326.961 8.32544C327.535 8.32544 328 9.15819 328 10.1854C328 11.2127 327.535 12.0454 326.961 12.0454Z" fill="#0C0421"/>
<path d="M318.501 9.59545L325.402 2.46545L325.787 3.67545L318.892 10.8055L318.501 9.59545Z" fill="#0C0421"/>
<path d="M325.921 4.59549C325.347 4.59549 324.882 3.76274 324.882 2.73549C324.882 1.70824 325.347 0.875488 325.921 0.875488C326.495 0.875488 326.96 1.70824 326.96 2.73549C326.96 3.76274 326.495 4.59549 325.921 4.59549Z" fill="#0C0421"/>
<path d="M318.501 10.7655L318.892 9.55554L325.787 16.6855L325.402 17.8955L318.501 10.7655Z" fill="#0C0421"/>
<path d="M325.921 19.4855C325.347 19.4855 324.882 18.6528 324.882 17.6255C324.882 16.5983 325.347 15.7655 325.921 15.7655C326.495 15.7655 326.96 16.5983 326.96 17.6255C326.96 18.6528 326.495 19.4855 325.921 19.4855Z" fill="#0C0421"/>
<path d="M139.481 37.0255C146.007 37.0255 152.148 32.4755 156.764 24.2155L157.697 22.5455C162.452 14.0355 168.772 9.35547 175.494 9.35547H319.076V10.6655H175.494C168.967 10.6655 162.826 15.2155 158.211 23.4755L157.278 25.1455C152.523 33.6555 146.203 38.3355 139.481 38.3355H-0.000244141V37.0255H139.481Z" fill="#0C0421"/>
</g>
<defs>
<clipPath id="clip0_701_1342">
<rect width="328" height="37.46" fill="white" transform="matrix(-1 0 0 1 328 0.875488)"/>
</clipPath>
</defs>
</svg>
